<svg width="88" height="88" viewBox="0 0 88 88" fill="none" xmlns="http://www.w3.org/2000/svg">
<g filter="url(#filter0_dd_25_11300)">
<rect x="14" y="11" width="60" height="60" rx="30" fill="#FC630E"/>
<path d="M31.3043 38.5342L55.2416 38.5342C56.0964 38.5342 56.5079 37.4862 55.8815 36.9046L48.4107 29.9674C47.809 29.4086 46.8303 29.8354 46.8303 30.6565L46.8303 35.0209C46.8303 35.5402 46.4093 35.9613 45.8899 35.9613L31.3043 35.9613C30.7849 35.9613 30.3638 36.3823 30.3638 36.9017L30.3638 37.5937C30.3638 38.1131 30.7849 38.5342 31.3043 38.5342Z" fill="white"/>
<path d="M56.6962 43.1655L32.7589 43.1655C31.9041 43.1655 31.4926 44.2135 32.1189 44.7951L39.5898 51.7323C40.1915 52.2911 41.1702 51.8643 41.1702 51.0432L41.1702 46.6789C41.1702 46.1595 41.5912 45.7384 42.1106 45.7384L56.6962 45.7384C57.2156 45.7384 57.6367 45.3174 57.6367 44.798L57.6367 44.106C57.6367 43.5866 57.2156 43.1655 56.6962 43.1655Z" fill="white"/>
</g>
<defs>
<filter id="filter0_dd_25_11300" x="0.363636" y="0.0909088" width="87.2727" height="87.2727" filterUnits="userSpaceOnUse" color-interpolation-filters="sRGB">
<feFlood flood-opacity="0" result="BackgroundImageFix"/>
<feColorMatrix in="SourceAlpha" type="matrix" values="0 0 0 0 0 0 0 0 0 0 0 0 0 0 0 0 0 0 127 0" result="hardAlpha"/>
<feOffset dy="1.36364"/>
<feColorMatrix type="matrix" values="0 0 0 0 0.988235 0 0 0 0 0.388235 0 0 0 0 0.054902 0 0 0 0.08 0"/>
<feBlend mode="normal" in2="BackgroundImageFix" result="effect1_dropShadow_25_11300"/>
<feColorMatrix in="SourceAlpha" type="matrix" values="0 0 0 0 0 0 0 0 0 0 0 0 0 0 0 0 0 0 127 0" result="hardAlpha"/>
<feOffset dy="2.72727"/>
<feGaussianBlur stdDeviation="6.81818"/>
<feColorMatrix type="matrix" values="0 0 0 0 1 0 0 0 0 0.431187 0 0 0 0 0.116667 0 0 0 0.08 0"/>
<feBlend mode="normal" in2="effect1_dropShadow_25_11300" result="effect2_dropShadow_25_11300"/>
<feBlend mode="normal" in="SourceGraphic" in2="effect2_dropShadow_25_11300" result="shape"/>
</filter>
</defs>
</svg>
