<svg width="38" height="38" viewBox="0 0 38 38" fill="none" xmlns="http://www.w3.org/2000/svg">
<rect width="38" height="38" rx="19" fill="#FFF5F0"/>
<path fill-rule="evenodd" clip-rule="evenodd" d="M14.1952 11.6965H23.8039V14.6531H14.1952V11.6965Z" fill="url(#paint0_linear_16_2448)"/>
<path d="M12.9712 29.7876H25.0288C26.3936 29.7876 27.5 28.6812 27.5 27.3164V15.2588C27.5 13.894 26.3936 12.7876 25.0288 12.7876H12.9712C11.6064 12.7876 10.5 13.894 10.5 15.2588V27.3164C10.5 28.6812 11.6064 29.7876 12.9712 29.7876Z" fill="url(#paint1_linear_16_2448)"/>
<path fill-rule="evenodd" clip-rule="evenodd" d="M10.5 16.0259H27.5V27.3592H10.5V16.0259Z" fill="url(#paint2_linear_16_2448)"/>
<g filter="url(#filter0_i_16_2448)">
<path d="M14.5474 22.3876L21.5165 15.7136L19.1934 20.4246H23.4523L15.3217 27.8838L19.1934 22.3876H14.5474Z" fill="#FFFFE8"/>
</g>
<path fill-rule="evenodd" clip-rule="evenodd" d="M12.7175 8.73996C12.7175 8.33183 13.0501 8.00098 13.4575 8.00098H24.1732C24.5819 8.00098 24.9132 8.32894 24.9132 8.73996V11.2919C24.9132 11.5154 24.732 11.6966 24.5084 11.6966H13.1223C12.8987 11.6966 12.7175 11.5154 12.7175 11.2919V8.73996Z" fill="url(#paint3_linear_16_2448)"/>
<defs>
<filter id="filter0_i_16_2448" x="14.5474" y="15.7136" width="8.90503" height="12.1702" filterUnits="userSpaceOnUse" color-interpolation-filters="sRGB">
<feFlood flood-opacity="0" result="BackgroundImageFix"/>
<feBlend mode="normal" in="SourceGraphic" in2="BackgroundImageFix" result="shape"/>
<feColorMatrix in="SourceAlpha" type="matrix" values="0 0 0 0 0 0 0 0 0 0 0 0 0 0 0 0 0 0 127 0" result="hardAlpha"/>
<feOffset dy="1.18733"/>
<feComposite in2="hardAlpha" operator="arithmetic" k2="-1" k3="1"/>
<feColorMatrix type="matrix" values="0 0 0 0 1 0 0 0 0 0.9065 0 0 0 0 0.725 0 0 0 1 0"/>
<feBlend mode="normal" in2="shape" result="effect1_innerShadow_16_2448"/>
</filter>
<linearGradient id="paint0_linear_16_2448" x1="14.1854" y1="12.0932" x2="23.8136" y2="12.0932" gradientUnits="userSpaceOnUse">
<stop stop-color="#AAAAAA"/>
<stop offset="0.302083" stop-color="#D6D6D6"/>
<stop offset="1" stop-color="#BEBEBE"/>
</linearGradient>
<linearGradient id="paint1_linear_16_2448" x1="10.4827" y1="15.0687" x2="27.5172" y2="15.0687" gradientUnits="userSpaceOnUse">
<stop stop-color="#CFCFCF"/>
<stop offset="0.302083" stop-color="white"/>
<stop offset="1" stop-color="#CFCFCF"/>
</linearGradient>
<linearGradient id="paint2_linear_16_2448" x1="10.5" y1="21.2878" x2="27.5" y2="21.2878" gradientUnits="userSpaceOnUse">
<stop stop-color="#FEA97A"/>
<stop offset="0.572917" stop-color="#FF6E1E"/>
<stop offset="1" stop-color="#D74E02"/>
</linearGradient>
<linearGradient id="paint3_linear_16_2448" x1="12.9286" y1="9.95433" x2="24.6667" y2="9.95433" gradientUnits="userSpaceOnUse">
<stop stop-color="#FEA97A"/>
<stop offset="1" stop-color="#FF6E1E"/>
</linearGradient>
</defs>
</svg>
