<svg width="60" height="60" viewBox="0 0 60 60" fill="none" xmlns="http://www.w3.org/2000/svg">
<path d="M17.3043 27.5342L41.2416 27.5342C42.0964 27.5342 42.5079 26.4862 41.8815 25.9046L34.4107 18.9674C33.809 18.4086 32.8303 18.8354 32.8303 19.6565L32.8303 24.0209C32.8303 24.5402 32.4093 24.9613 31.8899 24.9613L17.3043 24.9613C16.7849 24.9613 16.3638 25.3823 16.3638 25.9017L16.3638 26.5937C16.3638 27.1131 16.7849 27.5342 17.3043 27.5342Z" fill="#7F8694"/>
<path d="M42.6962 32.1655L18.7589 32.1655C17.9041 32.1655 17.4926 33.2135 18.1189 33.7951L25.5898 40.7323C26.1915 41.2911 27.1702 40.8643 27.1702 40.0432L27.1702 35.6789C27.1702 35.1595 27.5912 34.7384 28.1106 34.7384L42.6962 34.7384C43.2156 34.7384 43.6367 34.3174 43.6367 33.798L43.6367 33.106C43.6367 32.5866 43.2156 32.1655 42.6962 32.1655Z" fill="#7F8694"/>
</svg>
