<svg width="128" height="34" viewBox="0 0 128 34" fill="none" xmlns="http://www.w3.org/2000/svg">
<path fill-rule="evenodd" clip-rule="evenodd" d="M16.1256 1.86683C16.7848 1.785 17.3555 1.80517 17.9633 1.90996C20.3107 2.31461 22.2098 4.03558 22.8728 6.28448C23.6886 5.29615 24.9226 4.66587 26.3029 4.66587C28.5144 4.66587 30.3765 6.65864 30.9715 9.18195C33.1781 18.5364 29.6569 27.9811 25.021 31.2013C24.1603 31.7998 23.3915 32.0011 22.7085 32.0011C21.5268 32.0011 20.4932 31.359 19.9383 30.4051C19.3868 31.5272 18.2325 32.2999 16.8992 32.2999C15.5659 32.2999 14.4116 31.5272 13.8606 30.4051C13.3057 31.359 12.2721 32.0011 11.0899 32.0011C10.4074 32.0011 9.63856 31.7998 8.77742 31.2013C4.14155 27.9811 0.620326 18.5364 2.82697 9.18195C3.42241 6.65864 5.28452 4.66587 7.49595 4.66587C8.8763 4.66587 10.1103 5.29615 10.9257 6.28448C11.6161 3.94368 13.6459 2.17478 16.1256 1.86683Z" fill="#FC630E"/>
<path fill-rule="evenodd" clip-rule="evenodd" d="M15.1583 17.0842C15.1583 17.2894 15.3243 17.4557 15.5286 17.4557H16.8776C17.071 17.4557 17.7509 17.4453 18.0563 17.4248C18.3612 17.4039 18.6513 17.3386 18.927 17.2279C19.2023 17.1173 19.4406 16.9344 19.6414 16.6782C19.8426 16.4226 19.9432 16.0663 19.9432 15.6098C19.9432 15.1537 19.8387 14.8048 19.6305 14.5626C19.4218 14.3209 19.1727 14.1445 18.8826 14.0338C18.592 13.9232 17.8563 13.8574 17.5366 13.8365C17.216 13.816 16.9447 13.8056 16.7212 13.8056C15.8581 13.8056 15.1583 14.5053 15.1583 15.3685V17.0842ZM11.1166 15.7661C11.1166 12.7818 13.5361 10.3623 16.5204 10.3623C17.2796 10.3623 17.9308 10.3902 18.4744 10.4455C19.0176 10.5009 19.4867 10.5771 19.8813 10.6738C20.2755 10.7705 20.607 10.8881 20.8749 11.0262C21.1428 11.1647 21.3884 11.3167 21.6119 11.4826C22.2666 11.9801 22.754 12.5855 23.0746 13.2973C23.3943 14.0094 23.5546 14.7595 23.5546 15.5479C23.5546 15.9351 23.5132 16.3254 23.4317 16.7196C23.3499 17.1138 23.2309 17.4871 23.0746 17.8395C22.9182 18.1923 22.7357 18.5173 22.5275 18.8143C22.3184 19.1118 22.0806 19.364 21.8127 19.5714C21.5296 19.7931 21.2395 19.9865 20.942 20.1524C20.644 20.3184 20.3091 20.4565 19.9371 20.5671C19.5647 20.6777 19.1404 20.7609 18.6643 20.8158C18.1874 20.8716 17.6294 20.899 16.9895 20.899H15.6588C15.3822 20.899 15.1583 21.1072 15.1583 21.3638V23.9931C15.1583 24.9418 14.3893 25.7108 13.4406 25.7108C12.1571 25.7108 11.1166 24.6703 11.1166 23.3868L11.1166 15.7661Z" fill="white"/>
<path d="M10.114 17.4519H13.557C14.5078 17.4519 15.2785 18.2227 15.2785 19.1734C15.2785 20.1242 14.5078 20.8949 13.557 20.8949H10.114C9.16321 20.8949 8.39246 20.1242 8.39246 19.1734C8.39246 18.2227 9.16321 17.4519 10.114 17.4519Z" fill="white"/>
<path d="M26.6171 11.2102C27.7688 11.2102 28.7025 10.2765 28.7025 9.12475C28.7025 7.97299 27.7688 7.03931 26.6171 7.03931C25.4653 7.03931 24.5316 7.97299 24.5316 9.12475C24.5316 10.2765 25.4653 11.2102 26.6171 11.2102Z" fill="white" fill-opacity="0.2"/>
<path d="M41.2326 20.7656H42.8085V12.014H41.3856V10.2698H50.841V12.014H49.4487V20.7656H50.994V22.5098H41.2326V20.7656ZM51.759 9.8873H53.8398V14.768H55.6758V16.6346H53.8398V23.5502H51.759V9.8873ZM47.3679 20.7656V12.014H44.8893V20.7656H47.3679ZM56.6903 16.7876H58.7864V11.9222H56.8433V10.178H68.7773V11.9222H66.8342V16.7876H68.9303V18.5318H56.6903V16.7876ZM56.0018 21.1175H69.6188V22.877H56.0018V21.1175ZM64.7534 16.7876V11.9222H60.8672V16.7876H64.7534ZM80.869 9.8873H82.9498V23.5502H80.869V9.8873ZM70.7863 15.4565H76.6462V12.014H70.7863V10.2698H78.727V17.1701H72.8671V20.9186H79.951V22.6628H70.7863V15.4565ZM84.8058 20.8421C85.8768 20.5871 86.8458 20.1026 87.7128 19.3886C88.5798 18.6746 89.2734 17.7464 89.7936 16.604H84.8517V14.8904H90.3903C90.5025 14.4518 90.5841 13.9928 90.6351 13.5134C90.6963 13.034 90.7269 12.5342 90.7269 12.014H84.8823V10.2698H92.8383V11.6774C92.8383 13.1156 92.6394 14.462 92.2416 15.7166C91.8438 16.961 91.2879 18.0677 90.5739 19.0367C89.8599 20.0057 89.0082 20.8064 88.0188 21.4388C87.0396 22.061 85.9686 22.469 84.8058 22.6628V20.8421ZM94.7355 9.8873H96.8163V14.768H98.6523V16.6346H96.8163V23.5502H94.7355V9.8873ZM99.2078 20.8268C100.034 20.6024 100.763 20.1485 101.396 19.4651C102.028 18.7715 102.523 17.8178 102.88 16.604H99.2537V14.8904H103.247C103.318 14.462 103.369 14.0081 103.4 13.5287C103.431 13.0493 103.446 12.5444 103.446 12.014H99.2843V10.2698H105.481V11.6774C105.481 12.3302 105.455 12.9524 105.404 13.544C105.353 14.1254 105.282 14.6813 105.19 15.2117H106.812V9.9638H108.77V23.2442H106.812V17.0783H104.731C104.231 18.6593 103.507 19.9139 102.558 20.8421C101.61 21.7601 100.493 22.367 99.2078 22.6628V20.8268ZM109.948 9.8873H111.907V23.5502H109.948V9.8873ZM113.839 13.8041C113.839 13.1921 113.936 12.6515 114.13 12.1823C114.324 11.7029 114.599 11.3 114.956 10.9736C115.313 10.637 115.736 10.3871 116.226 10.2239C116.726 10.0505 117.282 9.9638 117.894 9.9638C118.506 9.9638 119.057 10.0505 119.546 10.2239C120.046 10.3871 120.474 10.637 120.831 10.9736C121.188 11.3 121.464 11.7029 121.658 12.1823C121.851 12.6515 121.948 13.1921 121.948 13.8041V15.3035H123.845V9.8873H125.926V23.5502H123.845V17.1701H121.948V18.9755C121.948 19.5875 121.851 20.1332 121.658 20.6126C121.464 21.0818 121.188 21.4796 120.831 21.806C120.474 22.1426 120.046 22.3925 119.546 22.5557C119.057 22.7291 118.506 22.8158 117.894 22.8158C117.282 22.8158 116.726 22.7291 116.226 22.5557C115.736 22.3925 115.313 22.1426 114.956 21.806C114.599 21.4796 114.324 21.0818 114.13 20.6126C113.936 20.1332 113.839 19.5875 113.839 18.9755V13.8041ZM119.867 13.7582C119.867 13.1258 119.689 12.626 119.332 12.2588C118.985 11.8916 118.506 11.708 117.894 11.708C117.282 11.708 116.797 11.8916 116.44 12.2588C116.093 12.626 115.92 13.1258 115.92 13.7582V19.0214C115.92 19.6538 116.093 20.1536 116.44 20.5208C116.797 20.888 117.282 21.0716 117.894 21.0716C118.506 21.0716 118.985 20.888 119.332 20.5208C119.689 20.1536 119.867 19.6538 119.867 19.0214V13.7582Z" fill="#5C5C5C"/>
</svg>
