<svg width="30" height="32" viewBox="0 0 30 32" fill="none" xmlns="http://www.w3.org/2000/svg">
<path fill-rule="evenodd" clip-rule="evenodd" d="M14.1256 0.86683C14.7848 0.785 15.3555 0.805168 15.9633 0.909959C18.3107 1.31461 20.2098 3.03558 20.8728 5.28448C21.6886 4.29615 22.9226 3.66587 24.3029 3.66587C26.5144 3.66587 28.3765 5.65864 28.9715 8.18195C31.1781 17.5364 27.6569 26.9811 23.021 30.2013C22.1603 30.7998 21.3915 31.0011 20.7085 31.0011C19.5268 31.0011 18.4932 30.359 17.9383 29.4051C17.3868 30.5272 16.2325 31.2999 14.8992 31.2999C13.5659 31.2999 12.4116 30.5272 11.8606 29.4051C11.3057 30.359 10.2721 31.0011 9.08991 31.0011C8.40735 31.0011 7.63856 30.7998 6.77742 30.2013C2.14155 26.9811 -1.37967 17.5364 0.82697 8.18195C1.42241 5.65864 3.28452 3.66587 5.49595 3.66587C6.8763 3.66587 8.1103 4.29615 8.9257 5.28448C9.61609 2.94368 11.6459 1.17478 14.1256 0.86683Z" fill="#FC630E"/>
<path fill-rule="evenodd" clip-rule="evenodd" d="M15.1583 17.0842C15.1583 17.2894 15.3243 17.4557 15.5286 17.4557H16.8776C17.071 17.4557 17.7509 17.4453 18.0563 17.4248C18.3612 17.4039 18.6513 17.3386 18.927 17.2279C19.2023 17.1173 19.4406 16.9344 19.6414 16.6782C19.8426 16.4226 19.9432 16.0663 19.9432 15.6098C19.9432 15.1537 19.8387 14.8048 19.6305 14.5626C19.4218 14.3209 19.1727 14.1445 18.8826 14.0338C18.592 13.9232 17.8563 13.8574 17.5366 13.8365C17.216 13.816 16.9447 13.8056 16.7212 13.8056C15.8581 13.8056 15.1583 14.5053 15.1583 15.3685V17.0842ZM11.1166 15.7661C11.1166 12.7818 13.5361 10.3623 16.5204 10.3623C17.2796 10.3623 17.9308 10.3902 18.4744 10.4455C19.0176 10.5009 19.4867 10.5771 19.8813 10.6738C20.2755 10.7705 20.607 10.8881 20.8749 11.0262C21.1428 11.1647 21.3884 11.3167 21.6119 11.4826C22.2666 11.9801 22.754 12.5855 23.0746 13.2973C23.3943 14.0094 23.5546 14.7595 23.5546 15.5479C23.5546 15.9351 23.5132 16.3254 23.4317 16.7196C23.3499 17.1138 23.2309 17.4871 23.0746 17.8395C22.9182 18.1923 22.7357 18.5173 22.5275 18.8143C22.3184 19.1118 22.0806 19.364 21.8127 19.5714C21.5296 19.7931 21.2395 19.9865 20.942 20.1524C20.644 20.3184 20.3091 20.4565 19.9371 20.5671C19.5647 20.6777 19.1404 20.7609 18.6643 20.8158C18.1874 20.8716 17.6294 20.899 16.9895 20.899H15.6588C15.3822 20.899 15.1583 21.1072 15.1583 21.3638V23.9931C15.1583 24.9418 14.3893 25.7108 13.4406 25.7108C12.1571 25.7108 11.1166 24.6703 11.1166 23.3868L11.1166 15.7661Z" fill="white"/>
</svg>
