<svg width="38" height="38" viewBox="0 0 38 38" fill="none" xmlns="http://www.w3.org/2000/svg">
<rect width="38" height="38" rx="19" fill="#EAF3FE"/>
<path d="M6.15869 16.9937C6.15869 16.2549 6.75757 15.656 7.49633 15.656H30.5038C31.2426 15.656 31.8414 16.2549 31.8414 16.9936V22.3442C31.8414 25.2993 29.4459 27.6948 26.4909 27.6948H11.5093C8.55423 27.6948 6.15869 25.2993 6.15869 22.3442V16.9937Z" fill="url(#paint0_linear_164_4456)"/>
<path d="M6.15869 16.9937C6.15869 16.2549 6.75757 15.656 7.49633 15.656H30.5038C31.2426 15.656 31.8414 16.2549 31.8414 16.9936V22.3442C31.8414 25.2993 29.4459 27.6948 26.4909 27.6948H11.5093C8.55423 27.6948 6.15869 25.2993 6.15869 22.3442V16.9937Z" fill="url(#paint1_linear_164_4456)"/>
<path fill-rule="evenodd" clip-rule="evenodd" d="M27.4704 12.0038C28.7327 11.8171 29.7014 10.7291 29.7014 9.41476C29.7014 7.96921 28.5296 6.79736 27.084 6.79736C25.6385 6.79736 24.4666 7.96921 24.4666 9.41476C24.4666 9.6485 24.4973 9.87509 24.5548 10.0907L19.6064 15.522H25.4024L27.4704 12.0038Z" fill="url(#paint2_linear_164_4456)"/>
<path d="M10.9741 27.5991H27.0258C27.0258 29.1822 25.7425 30.4655 24.1595 30.4655H13.8405C12.2574 30.4655 10.9741 29.1822 10.9741 27.5991Z" fill="url(#paint3_linear_164_4456)"/>
<defs>
<linearGradient id="paint0_linear_164_4456" x1="19.0001" y1="15.656" x2="19.0001" y2="27.6948" gradientUnits="userSpaceOnUse">
<stop offset="0.0885417" stop-color="#D2D2D2"/>
<stop offset="0.276042" stop-color="#E8E8E8"/>
<stop offset="0.71875" stop-color="#CCCCCC"/>
<stop offset="0.901042" stop-color="#B9B9B9"/>
<stop offset="1" stop-color="#AEAEAE"/>
</linearGradient>
<linearGradient id="paint1_linear_164_4456" x1="6.96141" y1="15.656" x2="29.7013" y2="15.656" gradientUnits="userSpaceOnUse">
<stop stop-color="#E8E8E8"/>
<stop offset="0.302083" stop-color="#D2D2D2"/>
<stop offset="0.630208" stop-color="#AEAEAE"/>
<stop offset="1" stop-color="#AEAEAE"/>
</linearGradient>
<linearGradient id="paint2_linear_164_4456" x1="24.6539" y1="6.79736" x2="24.6539" y2="15.522" gradientUnits="userSpaceOnUse">
<stop stop-color="#7AA4FE"/>
<stop offset="0.276042" stop-color="#0A4FE3"/>
<stop offset="0.682292" stop-color="#1E65FF"/>
<stop offset="1" stop-color="#0043D5"/>
</linearGradient>
<linearGradient id="paint3_linear_164_4456" x1="19" y1="27.5991" x2="19" y2="30.4655" gradientUnits="userSpaceOnUse">
<stop stop-color="#818181"/>
<stop offset="0.234375" stop-color="#B9B9B9"/>
<stop offset="0.453125" stop-color="#9C9C9C"/>
<stop offset="0.71875" stop-color="#CCCCCC"/>
</linearGradient>
</defs>
</svg>
